<?xml version="1.0" encoding="utf-8"?>
<!-- Generator: Adobe Illustrator 19.0.0, SVG Export Plug-In . SVG Version: 6.00 Build 0)  -->
<svg version="1.0" id="Layer_1" xmlns="http://www.w3.org/2000/svg" xmlns:xlink="http://www.w3.org/1999/xlink" x="0px" y="0px"
	 viewBox="-351 153 256 256" enable-background="new -351 153 256 256" xml:space="preserve">
<title>icon_support_w</title>
<path fill="#FFFFFF" d="M-224.74,368.24c-2,0-3.93,0-5.9-0.06c-7.63-0.05-15.52-0.1-23.17-1.45c-18.06-3.19-33-19.37-35.4-38.49
	c0-0.25-0.06-0.45-0.09-0.61h-0.12c-15.05-0.86-22.91-7.21-27-21.91c-0.1-0.14-0.21-0.27-0.3-0.41l-0.46-0.7v-12.69l0.14-0.42
	c0.24-0.74,0.46-1.5,0.68-2.25c0.49-1.85,1.11-3.65,1.86-5.41c2.64-6.21,7.69-11.08,14-13.48c1.05-0.4,1.19-0.51,1.2-1.87
	c0.3-32.14,22.4-61.39,53.66-71.14c7.54-2.37,15.4-3.58,23.31-3.59c36,0.06,67.11,25.15,74.78,60.32c0.8,4.06,1.32,8.16,1.55,12.29
	c0.05,0.72,0.11,1.44,0.17,2.16c0.12,1.45,0.27,1.55,1.16,1.94c10.22,4.46,15.71,12.73,15.87,23.94c0,0.62,0,1.24,0,1.87
	c0.2,3.48,0.02,6.97-0.54,10.41c-2.49,12.45-12.65,20.67-25.9,20.95h-1.9c-1,0-1.87,0.05-2.64,0.05c-2.14,0-4.35-0.14-6-1.75
	c-2-2-1.95-5.08-1.9-10.19c0.09-8.86,0.07-17.88,0-26.61c0-3.93,0-7.86,0-11.79c0-8.25,2.2-9,9-9h1
	c-0.87-20.37-9.24-36.58-25.53-49.5c-11.21-8.72-25.03-13.42-39.23-13.34c-12.08-0.02-23.93,3.27-34.27,9.52
	c-22.79,13.89-31.41,38.63-30.69,53.4h0.19c0.56,0,1,0,1.42-0.06s0.73-0.05,1.07-0.05c1.75-0.08,3.45,0.55,4.72,1.76
	c1.28,1.29,1.9,3.15,1.89,5.68c0,6.07,0,12.14,0,18.21c0,7.68,0,15.61,0,23.43c-0.1,11.29,2.25,19.26,7.62,25.86
	c7.26,8.93,16.49,13.29,28.22,13.34c0-0.4,0-0.79,0-1.18c0-2.88,0-5.59,0-8.3c-0.21-2.05,0.44-4.1,1.81-5.64
	c1.47-1.41,3.45-2.13,5.48-2h0.18c3.94,0,8,0.07,12.07,0.07s8.22,0,12.41-0.07h0.15c3,0,6.56,1.16,6.79,6.7
	c0.28,6.71-1.54,12.32-5.27,16.21s-9,5.82-15.44,5.82L-224.74,368.24z"/>
</svg>
