<?xml version="1.0" encoding="utf-8"?>
<!-- Generator: Adobe Illustrator 19.0.0, SVG Export Plug-In . SVG Version: 6.00 Build 0)  -->
<svg version="1.0" id="Layer_1" xmlns="http://www.w3.org/2000/svg" xmlns:xlink="http://www.w3.org/1999/xlink" x="0px" y="0px"
	 viewBox="-351 153 256 256" enable-background="new -351 153 256 256" xml:space="preserve">
<title>icon_branch_locator_w</title>
<path fill="#FFFFFF" d="M-275.54,266.19l0.08-8.26c0.57-2.47,1.06-5,1.71-7.4c7.42-27.87,34.4-44.38,62.64-38.37
	c22.37,4.76,39.83,25.92,40.61,48.68c0.47,13.42-3.67,25.53-9.58,37.19c-9.7,19.12-23.14,35.5-37.91,50.86
	c-0.64,0.61-1.39,1.09-2.21,1.41c-3.85,1.61-7.41,0.8-10.7-3.17c-7.71-9.3-15.59-18.5-22.63-28.29c-9-12.49-16.17-26-19.83-41.14
	C-274.27,273.9-274.82,270-275.54,266.19z M-222.41,236.89c-14.39-0.25-26.75,11.44-27,25.58c-0.31,14.8,11.32,27.18,25.79,27.44
	c14.78,0.27,27.13-11.19,27.41-25.43C-196,249.2-207.38,237.15-222.41,236.89z"/>
</svg>
